<svg width="20" height="20" viewBox="0 0 20 20" version="1.1" xmlns="http://www.w3.org/2000/svg" xmlns:xlink="http://www.w3.org/1999/xlink">
<title>Trash 2</title>
<desc>Created using Figma</desc>
<g id="Canvas" transform="translate(6863 3226)">
<g id="Trash 2">
<g id="Archive">
<g id="Vector">
<use xlink:href="#path0_fill" transform="translate(-6862 -3225)" fill="#FFFFFF"/>
</g>
<g id="Vector">
<use xlink:href="#path1_fill" transform="translate(-6861 -3221)" fill="#FFFFFF"/>
</g>
</g>
</g>
</g>
<defs>
<path id="path0_fill" d="M 18 3L 0 3L 0 2C 0 0.9 0.9 0 2 0L 16 0C 17.1 0 18 0.9 18 2L 18 3Z"/>
<path id="path1_fill" d="M 0 0L 0 12C 0 13.1 0.9 14 2 14L 14 14C 15.1 14 16 13.1 16 12L 16 0L 0 0ZM 10 6L 6 6C 4.9 6 4 5.325 4 4.5C 4 3.675 4.9 3 6 3L 10 3C 11.1 3 12 3.675 12 4.5C 12 5.325 11.1 6 10 6Z"/>
</defs>
</svg>
