<svg width="28" height="21" viewBox="0 0 28 21" version="1.1" xmlns="http://www.w3.org/2000/svg" xmlns:xlink="http://www.w3.org/1999/xlink">
<title>Vector</title>
<desc>Created using Figma</desc>
<g id="Canvas" transform="translate(7999 972)">
<g id="Vector">
<use xlink:href="#path0_fill" transform="translate(-7999 -972)" fill="#C8684C"/>
</g>
</g>
<defs>
<path id="path0_fill" d="M 14 0C 3.81818 0 0 10.1818 0 10.1818C 0 10.1818 3.81818 20.3636 14 20.3636C 24.1818 20.3636 28 10.1818 28 10.1818C 28 10.1818 24.1818 0 14 0ZM 14 17.8182C 9.78218 17.8182 6.36364 14.3996 6.36364 10.1818C 6.36364 5.964 9.78218 2.54545 14 2.54545C 18.2178 2.54545 21.6364 5.964 21.6364 10.1818C 21.6364 14.3996 18.2178 17.8182 14 17.8182ZM 14 6.36364C 16.1076 6.36364 17.8182 8.07291 17.8182 10.1818C 17.8182 12.2895 16.1076 14 14 14C 11.8911 14 10.1818 12.2895 10.1818 10.1818C 10.1818 8.07291 11.8911 6.36364 14 6.36364Z"/>
</defs>
</svg>
