<svg width="42" height="43" viewBox="0 0 42 43" version="1.1" xmlns="http://www.w3.org/2000/svg" xmlns:xlink="http://www.w3.org/1999/xlink">
<title>&#208;&#146;&#208;&#190;&#209;&#129;&#209;&#129;&#209;&#130;&#208;&#176;&#208;&#189;&#208;&#190;&#208;&#178;&#208;&#184;&#209;&#130;&#209;&#140;</title>
<desc>Created using Figma</desc>
<g id="Canvas" transform="translate(372 -4509)">
<g id="&#208;&#146;&#208;&#190;&#209;&#129;&#209;&#129;&#209;&#130;&#208;&#176;&#208;&#189;&#208;&#190;&#208;&#178;&#208;&#184;&#209;&#130;&#209;&#140;">
<g id="Union">
<use xlink:href="#path0_fill" transform="translate(-371 4509)" fill="#FFFFFF"/>
</g>
</g>
</g>
<defs>
<path id="path0_fill" d="M 9.79553 5.79541L 4 0L 4 12L 16 12L 11.2604 7.26025C 13.8483 5.82031 16.8284 5 20 5C 29.9412 5 38 13.0591 38 23C 38 32.9409 29.9412 41 20 41C 10.0588 41 2 32.9409 2 23C 2 19.7217 2.87646 16.6475 4.40808 14L 2.13452 14C 0.769043 16.7051 0 19.7627 0 23C 0 34.0459 8.95435 43 20 43C 31.0457 43 40 34.0459 40 23C 40 11.9541 31.0457 3 20 3C 16.2723 3 12.783 4.01953 9.79553 5.79541Z"/>
</defs>
</svg>
