<svg width="16" height="15" viewBox="0 0 16 15" version="1.1" xmlns="http://www.w3.org/2000/svg" xmlns:xlink="http://www.w3.org/1999/xlink">
<title>Calendar_16</title>
<desc>Created using Figma</desc>
<g id="Canvas" transform="translate(376 -1263)">
<g id="Calendar_16">
<g id="Vector">
<use xlink:href="#path0_fill" transform="translate(-376 1263)" fill="#FFFFFF"/>
</g>
</g>
</g>
<defs>
<path id="path0_fill" d="M 14 2L 13 2L 13 1C 13 0.448 12.553 0 12 0C 11.447 0 11 0.448 11 1L 11 2L 5 2L 5 1C 5 0.448 4.552 0 4 0C 3.448 0 3 0.448 3 1L 3 2L 2 2C 0.9 2 0 2.9 0 4L 0 13C 0 14.1 0.9 15 2 15L 14 15C 15.1 15 16 14.1 16 13L 16 4C 16 2.9 15.1 2 14 2ZM 10.104 12.118C 9.506 12.578 8.653 12.806 7.543 12.806C 6.613 12.806 5.789 12.652 5.07 12.343L 5.07 10.802C 5.402 10.97 5.767 11.107 6.166 11.212C 6.565 11.317 6.959 11.37 7.35 11.37C 7.948 11.37 8.389 11.268 8.674 11.065C 8.959 10.862 9.102 10.536 9.102 10.086C 9.102 9.684 8.938 9.398 8.61 9.231C 8.282 9.064 7.758 8.98 7.039 8.98L 6.389 8.98L 6.389 7.592L 7.051 7.592C 7.715 7.592 8.201 7.505 8.508 7.331C 8.815 7.157 8.967 6.859 8.967 6.437C 8.967 5.789 8.561 5.464 7.748 5.464C 7.467 5.464 7.182 5.511 6.891 5.605C 6.6 5.699 6.275 5.861 5.92 6.092L 5.082 4.844C 5.863 4.281 6.795 4 7.877 4C 8.764 4 9.465 4.18 9.979 4.539C 10.493 4.899 10.749 5.398 10.749 6.039C 10.749 6.575 10.587 7.029 10.263 7.404C 9.939 7.779 9.482 8.037 8.896 8.178L 8.896 8.213C 9.587 8.299 10.111 8.509 10.466 8.843C 10.822 9.177 11 9.627 11 10.193C 11 11.018 10.701 11.659 10.104 12.118Z"/>
</defs>
</svg>
