<svg width="22" height="16" viewBox="0 0 22 16" version="1.1" xmlns="http://www.w3.org/2000/svg" xmlns:xlink="http://www.w3.org/1999/xlink">
<title>Vector</title>
<desc>Created using Figma</desc>
<g id="Canvas" transform="translate(7710 941)">
<g id="Vector">
<use xlink:href="#path0_fill" transform="translate(-7710 -941)" fill="#FFFFFF"/>
</g>
</g>
<defs>
<path id="path0_fill" d="M 11 0C 3 0 0 8 0 8C 0 8 3 16 11 16C 19 16 22 8 22 8C 22 8 19 0 11 0ZM 11 14C 7.686 14 5 11.314 5 8C 5 4.686 7.686 2 11 2C 14.314 2 17 4.686 17 8C 17 11.314 14.314 14 11 14ZM 11 5C 12.656 5 14 6.343 14 8C 14 9.656 12.656 11 11 11C 9.343 11 8 9.656 8 8C 8 6.343 9.343 5 11 5Z"/>
</defs>
</svg>
